<svg width="233" height="46" viewBox="0 0 233 46" fill="none" xmlns="http://www.w3.org/2000/svg">
<path d="M0.0792714 21.6768L6.8531 25.2843L11.1458 27.5717L11.1086 17.4768L4.57193 13.9962L0.0420865 11.5818L0.0792714 21.6768Z" fill="#475569"/>
<path d="M11.0635 5.17425L11.0903 12.4389L11.146 27.5717L20.927 22.4872L20.9084 17.4512L20.8624 4.95006L20.8445 0.0897749L11.0635 5.17425Z" fill="#3B82F6"/>
<path d="M23.5978 21.2086L30.664 24.815L45.3803 32.3273L45.3431 22.2323L40.445 19.7323L28.2854 13.5255L23.5586 11.1137L23.5978 21.2086Z" fill="#3B82F6"/>
<path d="M23.5037 23.912L16.4642 27.5704L1.80172 35.1908L11.6219 40.2013L16.5014 37.6653L28.613 31.3692L33.3218 28.9225L23.5037 23.912Z" fill="#3B82F6"/>
<path d="M23.5417 34.0071L23.4204 41.0452L23.3434 45.5083L33.1244 40.4256L33.2405 33.6306L33.3207 28.9226L23.5417 34.0071Z" fill="#475569"/>
<path d="M33.3788 16.1239L40.2719 12.6915L44.6416 10.5158L34.8235 5.50534L28.1706 8.81799L23.5587 11.1117L33.3788 16.1239Z" fill="#475569"/>
<path d="M67.6425 39.48C65.8505 39.48 64.2345 39.048 62.7945 38.184C61.3865 37.288 60.4105 36.264 59.8665 35.112L59.7705 39H54.7785V3.72H59.8665V17.304L59.6265 21.048C60.1705 19.768 61.2265 18.68 62.7945 17.784C64.3945 16.856 66.1225 16.392 67.9785 16.392C70.1545 16.392 72.0425 16.888 73.6425 17.88C75.2745 18.84 76.5225 20.2 77.3865 21.96C78.2505 23.688 78.6825 25.704 78.6825 28.008C78.6825 30.344 78.1705 32.376 77.1465 34.104C76.1545 35.832 74.8105 37.16 73.1145 38.088C71.4505 39.016 69.6265 39.48 67.6425 39.48ZM66.7785 35.16C68.8585 35.16 70.4585 34.504 71.5785 33.192C72.6985 31.848 73.2585 30.12 73.2585 28.008C73.2585 25.864 72.6985 24.136 71.5785 22.824C70.4905 21.48 68.8905 20.808 66.7785 20.808C64.9545 20.808 63.4185 21.448 62.1705 22.728C60.9225 23.976 60.2985 25.624 60.2985 27.672V28.008C60.2985 29.384 60.5865 30.616 61.1625 31.704C61.7705 32.792 62.5545 33.64 63.5145 34.248C64.5065 34.856 65.5945 35.16 66.7785 35.16ZM79.5955 16.968H84.9715V39H79.5955V16.968ZM82.2355 12.84C81.2435 12.84 80.4115 12.504 79.7395 11.832C79.0675 11.16 78.7315 10.328 78.7315 9.336C78.7315 8.44 79.0675 7.672 79.7395 7.032C80.4115 6.392 81.2435 6.072 82.2355 6.072C83.1955 6.072 84.0115 6.392 84.6835 7.032C85.3555 7.672 85.6915 8.44 85.6915 9.336C85.6915 10.328 85.3555 11.16 84.6835 11.832C84.0435 12.504 83.2275 12.84 82.2355 12.84ZM94.733 22.824L95.933 21.096L90.605 21.24H86.813V16.968H103.949L94.013 33.192L92.813 35.016L97.997 34.824L103.565 34.728V39H84.701L94.733 22.824Z" fill="#475569"/>
<path d="M113.596 39.48C111.612 39.48 109.772 39.016 108.076 38.088C106.412 37.128 105.068 35.784 104.044 34.056C103.052 32.296 102.556 30.248 102.556 27.912C102.556 25.608 102.988 23.592 103.852 21.864C104.748 20.136 106.012 18.792 107.644 17.832C109.276 16.872 111.196 16.392 113.404 16.392C114.684 16.392 115.884 16.616 117.004 17.064C118.124 17.512 119.068 18.072 119.836 18.744C120.604 19.384 121.116 20.024 121.372 20.664L121.468 16.968H126.412V39H121.516L121.42 35.112C120.876 36.264 119.884 37.288 118.444 38.184C117.004 39.048 115.388 39.48 113.596 39.48ZM114.46 35.16C116.284 35.16 117.82 34.536 119.068 33.288C120.316 32.008 120.94 30.344 120.94 28.296V27.96C120.94 26.584 120.652 25.352 120.076 24.264C119.5 23.176 118.716 22.328 117.724 21.72C116.732 21.112 115.644 20.808 114.46 20.808C112.412 20.808 110.828 21.48 109.708 22.824C108.588 24.136 108.028 25.848 108.028 27.96C108.028 30.104 108.572 31.848 109.66 33.192C110.78 34.504 112.38 35.16 114.46 35.16ZM138.127 39.48C136.143 39.48 134.303 39.016 132.607 38.088C130.943 37.128 129.599 35.784 128.575 34.056C127.583 32.296 127.087 30.248 127.087 27.912C127.087 24.424 128.063 21.64 130.015 19.56C131.967 17.448 134.607 16.392 137.935 16.392C139.791 16.392 141.487 16.856 143.023 17.784C144.559 18.68 145.599 19.768 146.143 21.048L145.903 17.304V3.72H150.991V39H146.047L145.951 35.112C145.407 36.264 144.415 37.288 142.975 38.184C141.535 39.048 139.919 39.48 138.127 39.48ZM138.991 35.112C140.815 35.112 142.351 34.488 143.599 33.24C144.847 31.96 145.471 30.296 145.471 28.248V27.912C145.471 26.536 145.183 25.304 144.607 24.216C144.031 23.128 143.247 22.28 142.255 21.672C141.263 21.064 140.175 20.76 138.991 20.76C136.943 20.76 135.359 21.432 134.239 22.776C133.119 24.088 132.559 25.8 132.559 27.912C132.559 30.056 133.103 31.8 134.191 33.144C135.311 34.456 136.911 35.112 138.991 35.112ZM149.364 16.968H155.268L160.02 26.904L161.556 30.888L163.092 26.904L167.796 16.968H173.556L161.988 39H160.98L149.364 16.968ZM172.252 16.968H177.628V39H172.252V16.968ZM174.892 12.84C173.9 12.84 173.068 12.504 172.396 11.832C171.724 11.16 171.388 10.328 171.388 9.336C171.388 8.44 171.724 7.672 172.396 7.032C173.068 6.392 173.9 6.072 174.892 6.072C175.852 6.072 176.668 6.392 177.34 7.032C178.012 7.672 178.348 8.44 178.348 9.336C178.348 10.328 178.012 11.16 177.34 11.832C176.7 12.504 175.884 12.84 174.892 12.84ZM187.389 39.48C185.853 39.48 184.253 39.288 182.589 38.904C180.957 38.488 179.789 38.008 179.085 37.464L180.813 33.384C182.733 34.728 184.925 35.4 187.389 35.4C189.853 35.4 191.085 34.68 191.085 33.24C191.085 32.6 190.829 32.104 190.317 31.752C189.805 31.4 188.893 30.984 187.581 30.504L185.757 29.832C183.837 29.064 182.317 28.152 181.197 27.096C180.077 26.008 179.517 24.584 179.517 22.824C179.517 20.808 180.301 19.24 181.869 18.12C183.469 16.968 185.597 16.392 188.253 16.392C189.565 16.392 190.845 16.536 192.093 16.824C193.373 17.112 194.349 17.48 195.021 17.928L193.149 22.056C192.733 21.64 192.061 21.288 191.133 21C190.237 20.68 189.229 20.52 188.109 20.52C185.837 20.52 184.701 21.208 184.701 22.584C184.701 23.352 185.005 23.944 185.613 24.36C186.221 24.744 187.213 25.176 188.589 25.656C188.717 25.688 189.213 25.864 190.077 26.184C192.125 26.984 193.645 27.896 194.637 28.92C195.629 29.944 196.125 31.256 196.125 32.856C196.125 35.032 195.293 36.68 193.629 37.8C191.997 38.92 189.917 39.48 187.389 39.48ZM206.78 39.48C204.508 39.48 202.492 38.968 200.732 37.944C198.972 36.92 197.612 35.528 196.652 33.768C195.692 32.008 195.212 30.056 195.212 27.912C195.212 25.8 195.676 23.864 196.604 22.104C197.564 20.344 198.924 18.952 200.684 17.928C202.444 16.904 204.476 16.392 206.78 16.392C209.084 16.392 211.1 16.904 212.828 17.928C214.588 18.952 215.932 20.344 216.86 22.104C217.82 23.864 218.3 25.8 218.3 27.912C218.3 30.056 217.82 32.008 216.86 33.768C215.9 35.528 214.54 36.92 212.78 37.944C211.052 38.968 209.052 39.48 206.78 39.48ZM206.924 35.256C208.78 35.256 210.236 34.568 211.292 33.192C212.38 31.816 212.924 30.088 212.924 28.008C212.924 25.928 212.348 24.184 211.196 22.776C210.044 21.336 208.524 20.616 206.636 20.616C204.812 20.616 203.34 21.32 202.22 22.728C201.132 24.136 200.588 25.896 200.588 28.008C200.588 30.056 201.18 31.784 202.364 33.192C203.548 34.568 205.068 35.256 206.924 35.256ZM218.692 16.968H223.876V21.288C224.388 19.816 225.22 18.632 226.372 17.736C227.524 16.84 228.836 16.392 230.308 16.392C231.332 16.392 232.036 16.488 232.42 16.68L231.7 21.912C231.412 21.72 230.788 21.624 229.828 21.624C228.324 21.624 226.948 22.104 225.7 23.064C224.484 24.024 223.876 25.56 223.876 27.672V39H218.692V16.968Z" fill="#3B82F6"/>
</svg>
